<svg xmlns="http://www.w3.org/2000/svg" width="28" height="28" fill="none" viewBox="0 0 28 28"><path fill="#fff" d="M18.717 0H3V28H26V7.283L18.717 0Z" opacity=".5"/><path fill="#fff" d="M4 1V27H25V7.698L18.302 1H4Z"/><path fill="#000" d="M19 1.698V7H24.302L19 1.698Z" opacity=".08"/><path fill="#444" d="M8 8H15V7H8V8Z"/><path fill="#444" d="M8 12H21V13H8V12Z"/><path fill="#444" d="M19.5 18V17H8V18H19.5Z"/><path fill="#444" d="M12 23L12.5 22H8V23H12Z"/><path fill="#000" d="M18.717 0H3V28H26V7.283L18.717 0ZM19 1.7L24.3 7H19V1.7ZM25 27H4V1H18V8H25V27Z" opacity=".2"/><path fill="#E0AF97" d="M22.5 10L12.5 20L13.688 21.188L15 22.5L25 12.5L22.5 10Z"/><path fill="#E0AF97" d="M23.5003 9.00039L22.5005 10.0002L23.2507 10.7505L24.2506 9.75063L23.5003 9.00039Z"/><path fill="#fff" d="M24.2499 9.75015L23.25 10.75L24.2498 11.7498L25.2497 10.75L24.2499 9.75015Z"/><path fill="#E0AF97" d="M25.2503 10.7504L24.2505 11.7502L25.0007 12.5005L26.0006 11.5006L25.2503 10.7504Z"/><path fill="#DB2C3A" d="M25.499 7.41394C25.243 7.41394 24.987 7.51194 24.792 7.70694L23.5 8.99894L26.001 11.4999L27.293 10.2079C27.684 9.81694 27.684 9.18394 27.293 8.79394L26.206 7.70694C26.011 7.51194 25.755 7.41394 25.499 7.41394Z"/><path fill="#CC7A52" d="M24.25 11.75L14.49 21.509L13.291 21.709L13.491 20.51L23.25 10.75L22.5 10L12.5 20L12 23L15 22.5L25 12.5L24.25 11.75Z"/><path fill="#F5E4DC" d="M13.491 20.51L13.75 20.25L14.75 21.25L14.49 21.509L13.291 21.709L13.491 20.51Z"/><path fill="#E98089" d="M25.499 8.5L26.5 9.501L25.25 10.75L24.25 9.75L25.499 8.5Z"/></svg>